<?xml version="1.0" encoding="utf-8" standalone="no"?>
<!DOCTYPE svg PUBLIC "-//W3C//DTD SVG 1.1//EN"
  "http://www.w3.org/Graphics/SVG/1.1/DTD/svg11.dtd">
<svg xmlns:xlink="http://www.w3.org/1999/xlink" width="460.8pt" height="345.6pt" viewBox="0 0 460.8 345.6" xmlns="http://www.w3.org/2000/svg" version="1.1">
 <metadata>
  <rdf:RDF xmlns:dc="http://purl.org/dc/elements/1.1/" xmlns:cc="http://creativecommons.org/ns#" xmlns:rdf="http://www.w3.org/1999/02/22-rdf-syntax-ns#">
   <cc:Work>
    <dc:type rdf:resource="http://purl.org/dc/dcmitype/StillImage"/>
    <dc:date>2024-07-30T16:17:33.963399</dc:date>
    <dc:format>image/svg+xml</dc:format>
    <dc:creator>
     <cc:Agent>
      <dc:title>Matplotlib v3.9.1, https://matplotlib.org/</dc:title>
     </cc:Agent>
    </dc:creator>
   </cc:Work>
  </rdf:RDF>
 </metadata>
 <defs>
  <style type="text/css">*{stroke-linejoin: round; stroke-linecap: butt}</style>
 </defs>
 <g id="figure_1">
  <g id="patch_1">
   <path d="M 0 345.6 
L 460.8 345.6 
L 460.8 0 
L 0 0 
z
" style="fill: #ffffff"/>
  </g>
  <g id="axes_1">
   <g id="patch_2">
    <path d="M 57.6 307.584 
L 414.72 307.584 
L 414.72 41.472 
L 57.6 41.472 
z
" style="fill: #ffffff"/>
   </g>
   <g id="matplotlib.axis_1">
    <g id="xtick_1">
     <g id="line2d_1">
      <defs>
       <path id="m64068ce20f" d="M 0 0 
L 0 3.5 
" style="stroke: #000000; stroke-width: 0.8"/>
      </defs>
      <g>
       <use xlink:href="#m64068ce20f" x="73.832727" y="307.584" style="stroke: #000000; stroke-width: 0.8"/>
      </g>
     </g>
     <g id="text_1">
      <!-- 1.0 -->
      <g transform="translate(65.881165 322.182437) scale(0.1 -0.1)">
       <defs>
        <path id="DejaVuSans-31" d="M 794 531 
L 1825 531 
L 1825 4091 
L 703 3866 
L 703 4441 
L 1819 4666 
L 2450 4666 
L 2450 531 
L 3481 531 
L 3481 0 
L 794 0 
L 794 531 
z
" transform="scale(0.015625)"/>
        <path id="DejaVuSans-2e" d="M 684 794 
L 1344 794 
L 1344 0 
L 684 0 
L 684 794 
z
" transform="scale(0.015625)"/>
        <path id="DejaVuSans-30" d="M 2034 4250 
Q 1547 4250 1301 3770 
Q 1056 3291 1056 2328 
Q 1056 1369 1301 889 
Q 1547 409 2034 409 
Q 2525 409 2770 889 
Q 3016 1369 3016 2328 
Q 3016 3291 2770 3770 
Q 2525 4250 2034 4250 
z
M 2034 4750 
Q 2819 4750 3233 4129 
Q 3647 3509 3647 2328 
Q 3647 1150 3233 529 
Q 2819 -91 2034 -91 
Q 1250 -91 836 529 
Q 422 1150 422 2328 
Q 422 3509 836 4129 
Q 1250 4750 2034 4750 
z
" transform="scale(0.015625)"/>
       </defs>
       <use xlink:href="#DejaVuSans-31"/>
       <use xlink:href="#DejaVuSans-2e" x="63.623047"/>
       <use xlink:href="#DejaVuSans-30" x="95.410156"/>
      </g>
     </g>
    </g>
    <g id="xtick_2">
     <g id="line2d_2">
      <g>
       <use xlink:href="#m64068ce20f" x="127.941818" y="307.584" style="stroke: #000000; stroke-width: 0.8"/>
      </g>
     </g>
     <g id="text_2">
      <!-- 1.5 -->
      <g transform="translate(119.990256 322.182437) scale(0.1 -0.1)">
       <defs>
        <path id="DejaVuSans-35" d="M 691 4666 
L 3169 4666 
L 3169 4134 
L 1269 4134 
L 1269 2991 
Q 1406 3038 1543 3061 
Q 1681 3084 1819 3084 
Q 2600 3084 3056 2656 
Q 3513 2228 3513 1497 
Q 3513 744 3044 326 
Q 2575 -91 1722 -91 
Q 1428 -91 1123 -41 
Q 819 9 494 109 
L 494 744 
Q 775 591 1075 516 
Q 1375 441 1709 441 
Q 2250 441 2565 725 
Q 2881 1009 2881 1497 
Q 2881 1984 2565 2268 
Q 2250 2553 1709 2553 
Q 1456 2553 1204 2497 
Q 953 2441 691 2322 
L 691 4666 
z
" transform="scale(0.015625)"/>
       </defs>
       <use xlink:href="#DejaVuSans-31"/>
       <use xlink:href="#DejaVuSans-2e" x="63.623047"/>
       <use xlink:href="#DejaVuSans-35" x="95.410156"/>
      </g>
     </g>
    </g>
    <g id="xtick_3">
     <g id="line2d_3">
      <g>
       <use xlink:href="#m64068ce20f" x="182.050909" y="307.584" style="stroke: #000000; stroke-width: 0.8"/>
      </g>
     </g>
     <g id="text_3">
      <!-- 2.0 -->
      <g transform="translate(174.099347 322.182437) scale(0.1 -0.1)">
       <defs>
        <path id="DejaVuSans-32" d="M 1228 531 
L 3431 531 
L 3431 0 
L 469 0 
L 469 531 
Q 828 903 1448 1529 
Q 2069 2156 2228 2338 
Q 2531 2678 2651 2914 
Q 2772 3150 2772 3378 
Q 2772 3750 2511 3984 
Q 2250 4219 1831 4219 
Q 1534 4219 1204 4116 
Q 875 4013 500 3803 
L 500 4441 
Q 881 4594 1212 4672 
Q 1544 4750 1819 4750 
Q 2544 4750 2975 4387 
Q 3406 4025 3406 3419 
Q 3406 3131 3298 2873 
Q 3191 2616 2906 2266 
Q 2828 2175 2409 1742 
Q 1991 1309 1228 531 
z
" transform="scale(0.015625)"/>
       </defs>
       <use xlink:href="#DejaVuSans-32"/>
       <use xlink:href="#DejaVuSans-2e" x="63.623047"/>
       <use xlink:href="#DejaVuSans-30" x="95.410156"/>
      </g>
     </g>
    </g>
    <g id="xtick_4">
     <g id="line2d_4">
      <g>
       <use xlink:href="#m64068ce20f" x="236.16" y="307.584" style="stroke: #000000; stroke-width: 0.8"/>
      </g>
     </g>
     <g id="text_4">
      <!-- 2.5 -->
      <g transform="translate(228.208437 322.182437) scale(0.1 -0.1)">
       <use xlink:href="#DejaVuSans-32"/>
       <use xlink:href="#DejaVuSans-2e" x="63.623047"/>
       <use xlink:href="#DejaVuSans-35" x="95.410156"/>
      </g>
     </g>
    </g>
    <g id="xtick_5">
     <g id="line2d_5">
      <g>
       <use xlink:href="#m64068ce20f" x="290.269091" y="307.584" style="stroke: #000000; stroke-width: 0.8"/>
      </g>
     </g>
     <g id="text_5">
      <!-- 3.0 -->
      <g transform="translate(282.317528 322.182437) scale(0.1 -0.1)">
       <defs>
        <path id="DejaVuSans-33" d="M 2597 2516 
Q 3050 2419 3304 2112 
Q 3559 1806 3559 1356 
Q 3559 666 3084 287 
Q 2609 -91 1734 -91 
Q 1441 -91 1130 -33 
Q 819 25 488 141 
L 488 750 
Q 750 597 1062 519 
Q 1375 441 1716 441 
Q 2309 441 2620 675 
Q 2931 909 2931 1356 
Q 2931 1769 2642 2001 
Q 2353 2234 1838 2234 
L 1294 2234 
L 1294 2753 
L 1863 2753 
Q 2328 2753 2575 2939 
Q 2822 3125 2822 3475 
Q 2822 3834 2567 4026 
Q 2313 4219 1838 4219 
Q 1578 4219 1281 4162 
Q 984 4106 628 3988 
L 628 4550 
Q 988 4650 1302 4700 
Q 1616 4750 1894 4750 
Q 2613 4750 3031 4423 
Q 3450 4097 3450 3541 
Q 3450 3153 3228 2886 
Q 3006 2619 2597 2516 
z
" transform="scale(0.015625)"/>
       </defs>
       <use xlink:href="#DejaVuSans-33"/>
       <use xlink:href="#DejaVuSans-2e" x="63.623047"/>
       <use xlink:href="#DejaVuSans-30" x="95.410156"/>
      </g>
     </g>
    </g>
    <g id="xtick_6">
     <g id="line2d_6">
      <g>
       <use xlink:href="#m64068ce20f" x="344.378182" y="307.584" style="stroke: #000000; stroke-width: 0.8"/>
      </g>
     </g>
     <g id="text_6">
      <!-- 3.5 -->
      <g transform="translate(336.426619 322.182437) scale(0.1 -0.1)">
       <use xlink:href="#DejaVuSans-33"/>
       <use xlink:href="#DejaVuSans-2e" x="63.623047"/>
       <use xlink:href="#DejaVuSans-35" x="95.410156"/>
      </g>
     </g>
    </g>
    <g id="xtick_7">
     <g id="line2d_7">
      <g>
       <use xlink:href="#m64068ce20f" x="398.487273" y="307.584" style="stroke: #000000; stroke-width: 0.8"/>
      </g>
     </g>
     <g id="text_7">
      <!-- 4.0 -->
      <g transform="translate(390.53571 322.182437) scale(0.1 -0.1)">
       <defs>
        <path id="DejaVuSans-34" d="M 2419 4116 
L 825 1625 
L 2419 1625 
L 2419 4116 
z
M 2253 4666 
L 3047 4666 
L 3047 1625 
L 3713 1625 
L 3713 1100 
L 3047 1100 
L 3047 0 
L 2419 0 
L 2419 1100 
L 313 1100 
L 313 1709 
L 2253 4666 
z
" transform="scale(0.015625)"/>
       </defs>
       <use xlink:href="#DejaVuSans-34"/>
       <use xlink:href="#DejaVuSans-2e" x="63.623047"/>
       <use xlink:href="#DejaVuSans-30" x="95.410156"/>
      </g>
     </g>
    </g>
    <g id="text_8">
     <!-- $|x-y|$ -->
     <g transform="translate(220.71 335.962125) scale(0.1 -0.1)">
      <defs>
       <path id="DejaVuSans-7c" d="M 1344 4891 
L 1344 -1509 
L 813 -1509 
L 813 4891 
L 1344 4891 
z
" transform="scale(0.015625)"/>
       <path id="DejaVuSans-Oblique-78" d="M 3841 3500 
L 2234 1784 
L 3219 0 
L 2559 0 
L 1819 1388 
L 531 0 
L -166 0 
L 1556 1844 
L 641 3500 
L 1300 3500 
L 1972 2234 
L 3144 3500 
L 3841 3500 
z
" transform="scale(0.015625)"/>
       <path id="DejaVuSans-2212" d="M 678 2272 
L 4684 2272 
L 4684 1741 
L 678 1741 
L 678 2272 
z
" transform="scale(0.015625)"/>
       <path id="DejaVuSans-Oblique-79" d="M 1588 -325 
Q 1188 -997 936 -1164 
Q 684 -1331 294 -1331 
L -159 -1331 
L -63 -850 
L 269 -850 
Q 509 -850 678 -719 
Q 847 -588 1056 -206 
L 1234 128 
L 459 3500 
L 1069 3500 
L 1650 819 
L 3256 3500 
L 3859 3500 
L 1588 -325 
z
" transform="scale(0.015625)"/>
      </defs>
      <use xlink:href="#DejaVuSans-7c" transform="translate(0 0.578125)"/>
      <use xlink:href="#DejaVuSans-Oblique-78" transform="translate(33.691406 0.578125)"/>
      <use xlink:href="#DejaVuSans-2212" transform="translate(112.353516 0.578125)"/>
      <use xlink:href="#DejaVuSans-Oblique-79" transform="translate(215.625 0.578125)"/>
      <use xlink:href="#DejaVuSans-7c" transform="translate(274.804688 0.578125)"/>
     </g>
    </g>
   </g>
   <g id="matplotlib.axis_2">
    <g id="ytick_1">
     <g id="line2d_8">
      <defs>
       <path id="m35a748de22" d="M 0 0 
L -3.5 0 
" style="stroke: #000000; stroke-width: 0.8"/>
      </defs>
      <g>
       <use xlink:href="#m35a748de22" x="57.6" y="300.189753" style="stroke: #000000; stroke-width: 0.8"/>
      </g>
     </g>
     <g id="text_9">
      <!-- 0.0 -->
      <g transform="translate(34.696875 303.988972) scale(0.1 -0.1)">
       <use xlink:href="#DejaVuSans-30"/>
       <use xlink:href="#DejaVuSans-2e" x="63.623047"/>
       <use xlink:href="#DejaVuSans-30" x="95.410156"/>
      </g>
     </g>
    </g>
    <g id="ytick_2">
     <g id="line2d_9">
      <g>
       <use xlink:href="#m35a748de22" x="57.6" y="244.572078" style="stroke: #000000; stroke-width: 0.8"/>
      </g>
     </g>
     <g id="text_10">
      <!-- 0.5 -->
      <g transform="translate(34.696875 248.371297) scale(0.1 -0.1)">
       <use xlink:href="#DejaVuSans-30"/>
       <use xlink:href="#DejaVuSans-2e" x="63.623047"/>
       <use xlink:href="#DejaVuSans-35" x="95.410156"/>
      </g>
     </g>
    </g>
    <g id="ytick_3">
     <g id="line2d_10">
      <g>
       <use xlink:href="#m35a748de22" x="57.6" y="188.954403" style="stroke: #000000; stroke-width: 0.8"/>
      </g>
     </g>
     <g id="text_11">
      <!-- 1.0 -->
      <g transform="translate(34.696875 192.753621) scale(0.1 -0.1)">
       <use xlink:href="#DejaVuSans-31"/>
       <use xlink:href="#DejaVuSans-2e" x="63.623047"/>
       <use xlink:href="#DejaVuSans-30" x="95.410156"/>
      </g>
     </g>
    </g>
    <g id="ytick_4">
     <g id="line2d_11">
      <g>
       <use xlink:href="#m35a748de22" x="57.6" y="133.336727" style="stroke: #000000; stroke-width: 0.8"/>
      </g>
     </g>
     <g id="text_12">
      <!-- 1.5 -->
      <g transform="translate(34.696875 137.135946) scale(0.1 -0.1)">
       <use xlink:href="#DejaVuSans-31"/>
       <use xlink:href="#DejaVuSans-2e" x="63.623047"/>
       <use xlink:href="#DejaVuSans-35" x="95.410156"/>
      </g>
     </g>
    </g>
    <g id="ytick_5">
     <g id="line2d_12">
      <g>
       <use xlink:href="#m35a748de22" x="57.6" y="77.719052" style="stroke: #000000; stroke-width: 0.8"/>
      </g>
     </g>
     <g id="text_13">
      <!-- 2.0 -->
      <g transform="translate(34.696875 81.518271) scale(0.1 -0.1)">
       <use xlink:href="#DejaVuSans-32"/>
       <use xlink:href="#DejaVuSans-2e" x="63.623047"/>
       <use xlink:href="#DejaVuSans-30" x="95.410156"/>
      </g>
     </g>
    </g>
    <g id="text_14">
     <!-- $\langle( \phi(x) - \phi (y))^2\rangle$ -->
     <g transform="translate(28.596875 211.228) rotate(-90) scale(0.1 -0.1)">
      <defs>
       <path id="DejaVuSans-27e8" d="M 572 2006 
L 1453 4856 
L 1984 4856 
L 1103 2006 
L 1984 -844 
L 1453 -844 
L 572 2006 
z
" transform="scale(0.015625)"/>
       <path id="DejaVuSans-28" d="M 1984 4856 
Q 1566 4138 1362 3434 
Q 1159 2731 1159 2009 
Q 1159 1288 1364 580 
Q 1569 -128 1984 -844 
L 1484 -844 
Q 1016 -109 783 600 
Q 550 1309 550 2009 
Q 550 2706 781 3412 
Q 1013 4119 1484 4856 
L 1984 4856 
z
" transform="scale(0.015625)"/>
       <path id="DejaVuSans-Oblique-3d5" d="M 2991 4863 
L 2738 3572 
Q 3363 3572 3684 3094 
Q 4016 2606 3850 1747 
Q 3681 888 3159 400 
Q 2653 -78 2028 -78 
L 1784 -1331 
L 1213 -1331 
L 1456 -78 
Q 834 -78 509 400 
Q 178 888 347 1747 
Q 513 2606 1034 3094 
Q 1544 3572 2166 3572 
L 2419 4863 
L 2991 4863 
z
M 2128 434 
Q 2481 434 2784 756 
Q 3116 1116 3244 1747 
Q 3369 2372 3169 2738 
Q 2991 3059 2638 3059 
L 2128 434 
z
M 1556 434 
L 2066 3059 
Q 1716 3059 1413 2738 
Q 1072 2372 953 1747 
Q 834 1116 1028 756 
Q 1203 434 1556 434 
z
" transform="scale(0.015625)"/>
       <path id="DejaVuSans-29" d="M 513 4856 
L 1013 4856 
Q 1481 4119 1714 3412 
Q 1947 2706 1947 2009 
Q 1947 1309 1714 600 
Q 1481 -109 1013 -844 
L 513 -844 
Q 928 -128 1133 580 
Q 1338 1288 1338 2009 
Q 1338 2731 1133 3434 
Q 928 4138 513 4856 
z
" transform="scale(0.015625)"/>
       <path id="DejaVuSans-27e9" d="M 1925 2006 
L 1044 -844 
L 513 -844 
L 1394 2006 
L 513 4856 
L 1044 4856 
L 1925 2006 
z
" transform="scale(0.015625)"/>
      </defs>
      <use xlink:href="#DejaVuSans-27e8" transform="translate(0 0.765625)"/>
      <use xlink:href="#DejaVuSans-28" transform="translate(39.013672 0.765625)"/>
      <use xlink:href="#DejaVuSans-Oblique-3d5" transform="translate(78.027344 0.765625)"/>
      <use xlink:href="#DejaVuSans-28" transform="translate(143.994141 0.765625)"/>
      <use xlink:href="#DejaVuSans-Oblique-78" transform="translate(183.007812 0.765625)"/>
      <use xlink:href="#DejaVuSans-29" transform="translate(242.1875 0.765625)"/>
      <use xlink:href="#DejaVuSans-2212" transform="translate(300.683594 0.765625)"/>
      <use xlink:href="#DejaVuSans-Oblique-3d5" transform="translate(403.955078 0.765625)"/>
      <use xlink:href="#DejaVuSans-28" transform="translate(469.921875 0.765625)"/>
      <use xlink:href="#DejaVuSans-Oblique-79" transform="translate(508.935547 0.765625)"/>
      <use xlink:href="#DejaVuSans-29" transform="translate(568.115234 0.765625)"/>
      <use xlink:href="#DejaVuSans-29" transform="translate(607.128906 0.765625)"/>
      <use xlink:href="#DejaVuSans-32" transform="translate(647.099609 39.046875) scale(0.7)"/>
      <use xlink:href="#DejaVuSans-27e9" transform="translate(694.370117 0.765625)"/>
     </g>
    </g>
   </g>
   <g id="LineCollection_1">
    <path d="M 73.832727 295.273925 
L 73.832727 295.236901 
" clip-path="url(#p7dc4420fa5)" style="fill: none; stroke: #ff0000; stroke-width: 1.5"/>
    <path d="M 182.050909 292.709972 
L 182.050909 292.62924 
" clip-path="url(#p7dc4420fa5)" style="fill: none; stroke: #ff0000; stroke-width: 1.5"/>
    <path d="M 290.269091 291.626083 
L 290.269091 291.515831 
" clip-path="url(#p7dc4420fa5)" style="fill: none; stroke: #ff0000; stroke-width: 1.5"/>
    <path d="M 398.487273 291.328119 
L 398.487273 291.209427 
" clip-path="url(#p7dc4420fa5)" style="fill: none; stroke: #ff0000; stroke-width: 1.5"/>
   </g>
   <g id="line2d_13">
    <defs>
     <path id="me3149da091" d="M 2 0 
L -2 -0 
" style="stroke: #ff0000"/>
    </defs>
    <g clip-path="url(#p7dc4420fa5)">
     <use xlink:href="#me3149da091" x="73.832727" y="295.273925" style="fill: #ff0000; stroke: #ff0000"/>
     <use xlink:href="#me3149da091" x="182.050909" y="292.709972" style="fill: #ff0000; stroke: #ff0000"/>
     <use xlink:href="#me3149da091" x="290.269091" y="291.626083" style="fill: #ff0000; stroke: #ff0000"/>
     <use xlink:href="#me3149da091" x="398.487273" y="291.328119" style="fill: #ff0000; stroke: #ff0000"/>
    </g>
   </g>
   <g id="line2d_14">
    <g clip-path="url(#p7dc4420fa5)">
     <use xlink:href="#me3149da091" x="73.832727" y="295.236901" style="fill: #ff0000; stroke: #ff0000"/>
     <use xlink:href="#me3149da091" x="182.050909" y="292.62924" style="fill: #ff0000; stroke: #ff0000"/>
     <use xlink:href="#me3149da091" x="290.269091" y="291.515831" style="fill: #ff0000; stroke: #ff0000"/>
     <use xlink:href="#me3149da091" x="398.487273" y="291.209427" style="fill: #ff0000; stroke: #ff0000"/>
    </g>
   </g>
   <g id="line2d_15">
    <path d="M 73.832727 295.255413 
L 182.050909 292.669606 
L 290.269091 291.570957 
L 398.487273 291.268773 
" clip-path="url(#p7dc4420fa5)" style="fill: none; stroke-dasharray: 2.775,1.2; stroke-dashoffset: 0; stroke: #ff0000; stroke-width: 0.75"/>
   </g>
   <g id="LineCollection_2">
    <path d="M 73.832727 285.920708 
L 73.832727 285.81655 
" clip-path="url(#p7dc4420fa5)" style="fill: none; stroke: #0000ff; stroke-width: 1.5"/>
    <path d="M 182.050909 273.127783 
L 182.050909 272.923211 
" clip-path="url(#p7dc4420fa5)" style="fill: none; stroke: #0000ff; stroke-width: 1.5"/>
    <path d="M 290.269091 265.824017 
L 290.269091 265.587597 
" clip-path="url(#p7dc4420fa5)" style="fill: none; stroke: #0000ff; stroke-width: 1.5"/>
    <path d="M 398.487273 263.58634 
L 398.487273 263.342487 
" clip-path="url(#p7dc4420fa5)" style="fill: none; stroke: #0000ff; stroke-width: 1.5"/>
   </g>
   <g id="line2d_16">
    <defs>
     <path id="m91e31c4048" d="M 2 0 
L -2 -0 
" style="stroke: #0000ff"/>
    </defs>
    <g clip-path="url(#p7dc4420fa5)">
     <use xlink:href="#m91e31c4048" x="73.832727" y="285.920708" style="fill: #0000ff; stroke: #0000ff"/>
     <use xlink:href="#m91e31c4048" x="182.050909" y="273.127783" style="fill: #0000ff; stroke: #0000ff"/>
     <use xlink:href="#m91e31c4048" x="290.269091" y="265.824017" style="fill: #0000ff; stroke: #0000ff"/>
     <use xlink:href="#m91e31c4048" x="398.487273" y="263.58634" style="fill: #0000ff; stroke: #0000ff"/>
    </g>
   </g>
   <g id="line2d_17">
    <g clip-path="url(#p7dc4420fa5)">
     <use xlink:href="#m91e31c4048" x="73.832727" y="285.81655" style="fill: #0000ff; stroke: #0000ff"/>
     <use xlink:href="#m91e31c4048" x="182.050909" y="272.923211" style="fill: #0000ff; stroke: #0000ff"/>
     <use xlink:href="#m91e31c4048" x="290.269091" y="265.587597" style="fill: #0000ff; stroke: #0000ff"/>
     <use xlink:href="#m91e31c4048" x="398.487273" y="263.342487" style="fill: #0000ff; stroke: #0000ff"/>
    </g>
   </g>
   <g id="line2d_18">
    <path d="M 73.832727 285.868629 
L 182.050909 273.025497 
L 290.269091 265.705807 
L 398.487273 263.464414 
" clip-path="url(#p7dc4420fa5)" style="fill: none; stroke-dasharray: 2.775,1.2; stroke-dashoffset: 0; stroke: #0000ff; stroke-width: 0.75"/>
   </g>
   <g id="LineCollection_3">
    <path d="M 73.832727 214.202459 
L 73.832727 213.869431 
" clip-path="url(#p7dc4420fa5)" style="fill: none; stroke: #008000; stroke-width: 1.5"/>
    <path d="M 182.050909 124.030817 
L 182.050909 123.061741 
" clip-path="url(#p7dc4420fa5)" style="fill: none; stroke: #008000; stroke-width: 1.5"/>
    <path d="M 290.269091 71.494069 
L 290.269091 69.991914 
" clip-path="url(#p7dc4420fa5)" style="fill: none; stroke: #008000; stroke-width: 1.5"/>
    <path d="M 398.487273 55.267898 
L 398.487273 53.568 
" clip-path="url(#p7dc4420fa5)" style="fill: none; stroke: #008000; stroke-width: 1.5"/>
   </g>
   <g id="line2d_19">
    <defs>
     <path id="m7d498c51ed" d="M 2 0 
L -2 -0 
" style="stroke: #008000"/>
    </defs>
    <g clip-path="url(#p7dc4420fa5)">
     <use xlink:href="#m7d498c51ed" x="73.832727" y="214.202459" style="fill: #008000; stroke: #008000"/>
     <use xlink:href="#m7d498c51ed" x="182.050909" y="124.030817" style="fill: #008000; stroke: #008000"/>
     <use xlink:href="#m7d498c51ed" x="290.269091" y="71.494069" style="fill: #008000; stroke: #008000"/>
     <use xlink:href="#m7d498c51ed" x="398.487273" y="55.267898" style="fill: #008000; stroke: #008000"/>
    </g>
   </g>
   <g id="line2d_20">
    <g clip-path="url(#p7dc4420fa5)">
     <use xlink:href="#m7d498c51ed" x="73.832727" y="213.869431" style="fill: #008000; stroke: #008000"/>
     <use xlink:href="#m7d498c51ed" x="182.050909" y="123.061741" style="fill: #008000; stroke: #008000"/>
     <use xlink:href="#m7d498c51ed" x="290.269091" y="69.991914" style="fill: #008000; stroke: #008000"/>
     <use xlink:href="#m7d498c51ed" x="398.487273" y="53.568" style="fill: #008000; stroke: #008000"/>
    </g>
   </g>
   <g id="line2d_21">
    <path d="M 73.832727 214.035945 
L 182.050909 123.546279 
L 290.269091 70.742992 
L 398.487273 54.417949 
" clip-path="url(#p7dc4420fa5)" style="fill: none; stroke-dasharray: 2.775,1.2; stroke-dashoffset: 0; stroke: #008000; stroke-width: 0.75"/>
   </g>
   <g id="LineCollection_4">
    <path d="M 73.832727 295.303127 
L 73.832727 295.259356 
" clip-path="url(#p7dc4420fa5)" style="fill: none; stroke: #ffa500; stroke-width: 1.5"/>
    <path d="M 182.050909 292.744383 
L 182.050909 292.653974 
" clip-path="url(#p7dc4420fa5)" style="fill: none; stroke: #ffa500; stroke-width: 1.5"/>
    <path d="M 290.269091 291.658797 
L 290.269091 291.535878 
" clip-path="url(#p7dc4420fa5)" style="fill: none; stroke: #ffa500; stroke-width: 1.5"/>
    <path d="M 398.487273 291.360834 
L 398.487273 291.228586 
" clip-path="url(#p7dc4420fa5)" style="fill: none; stroke: #ffa500; stroke-width: 1.5"/>
   </g>
   <g id="line2d_22">
    <defs>
     <path id="mf5551f35b3" d="M 2 0 
L -2 -0 
" style="stroke: #ffa500"/>
    </defs>
    <g clip-path="url(#p7dc4420fa5)">
     <use xlink:href="#mf5551f35b3" x="73.832727" y="295.303127" style="fill: #ffa500; stroke: #ffa500"/>
     <use xlink:href="#mf5551f35b3" x="182.050909" y="292.744383" style="fill: #ffa500; stroke: #ffa500"/>
     <use xlink:href="#mf5551f35b3" x="290.269091" y="291.658797" style="fill: #ffa500; stroke: #ffa500"/>
     <use xlink:href="#mf5551f35b3" x="398.487273" y="291.360834" style="fill: #ffa500; stroke: #ffa500"/>
    </g>
   </g>
   <g id="line2d_23">
    <g clip-path="url(#p7dc4420fa5)">
     <use xlink:href="#mf5551f35b3" x="73.832727" y="295.259356" style="fill: #ffa500; stroke: #ffa500"/>
     <use xlink:href="#mf5551f35b3" x="182.050909" y="292.653974" style="fill: #ffa500; stroke: #ffa500"/>
     <use xlink:href="#mf5551f35b3" x="290.269091" y="291.535878" style="fill: #ffa500; stroke: #ffa500"/>
     <use xlink:href="#mf5551f35b3" x="398.487273" y="291.228586" style="fill: #ffa500; stroke: #ffa500"/>
    </g>
   </g>
   <g id="line2d_24">
    <path d="M 73.832727 295.281242 
L 182.050909 292.699178 
L 290.269091 291.597338 
L 398.487273 291.29471 
" clip-path="url(#p7dc4420fa5)" style="fill: none; stroke-dasharray: 2.775,1.2; stroke-dashoffset: 0; stroke: #ffa500; stroke-width: 0.75"/>
   </g>
   <g id="LineCollection_5">
    <path d="M 73.832727 295.37391 
L 73.832727 295.31546 
" clip-path="url(#p7dc4420fa5)" style="fill: none; stroke: #800080; stroke-width: 1.5"/>
    <path d="M 182.050909 292.852744 
L 182.050909 292.733464 
" clip-path="url(#p7dc4420fa5)" style="fill: none; stroke: #800080; stroke-width: 1.5"/>
    <path d="M 290.269091 291.776782 
L 290.269091 291.622339 
" clip-path="url(#p7dc4420fa5)" style="fill: none; stroke: #800080; stroke-width: 1.5"/>
    <path d="M 398.487273 291.481966 
L 398.487273 291.314896 
" clip-path="url(#p7dc4420fa5)" style="fill: none; stroke: #800080; stroke-width: 1.5"/>
   </g>
   <g id="line2d_25">
    <defs>
     <path id="m3151115408" d="M 2 0 
L -2 -0 
" style="stroke: #800080"/>
    </defs>
    <g clip-path="url(#p7dc4420fa5)">
     <use xlink:href="#m3151115408" x="73.832727" y="295.37391" style="fill: #800080; stroke: #800080"/>
     <use xlink:href="#m3151115408" x="182.050909" y="292.852744" style="fill: #800080; stroke: #800080"/>
     <use xlink:href="#m3151115408" x="290.269091" y="291.776782" style="fill: #800080; stroke: #800080"/>
     <use xlink:href="#m3151115408" x="398.487273" y="291.481966" style="fill: #800080; stroke: #800080"/>
    </g>
   </g>
   <g id="line2d_26">
    <g clip-path="url(#p7dc4420fa5)">
     <use xlink:href="#m3151115408" x="73.832727" y="295.31546" style="fill: #800080; stroke: #800080"/>
     <use xlink:href="#m3151115408" x="182.050909" y="292.733464" style="fill: #800080; stroke: #800080"/>
     <use xlink:href="#m3151115408" x="290.269091" y="291.622339" style="fill: #800080; stroke: #800080"/>
     <use xlink:href="#m3151115408" x="398.487273" y="291.314896" style="fill: #800080; stroke: #800080"/>
    </g>
   </g>
   <g id="line2d_27">
    <path d="M 73.832727 295.344685 
L 182.050909 292.793104 
L 290.269091 291.699561 
L 398.487273 291.398431 
" clip-path="url(#p7dc4420fa5)" style="fill: none; stroke-dasharray: 2.775,1.2; stroke-dashoffset: 0; stroke: #800080; stroke-width: 0.75"/>
   </g>
   <g id="LineCollection_6">
    <path d="M 73.832727 295.415254 
L 73.832727 295.305854 
" clip-path="url(#p7dc4420fa5)" style="fill: none; stroke: #000000; stroke-width: 1.5"/>
    <path d="M 182.050909 292.875455 
L 182.050909 292.662583 
" clip-path="url(#p7dc4420fa5)" style="fill: none; stroke: #000000; stroke-width: 1.5"/>
    <path d="M 290.269091 291.76575 
L 290.269091 291.492095 
" clip-path="url(#p7dc4420fa5)" style="fill: none; stroke: #000000; stroke-width: 1.5"/>
    <path d="M 398.487273 291.441627 
L 398.487273 291.154654 
" clip-path="url(#p7dc4420fa5)" style="fill: none; stroke: #000000; stroke-width: 1.5"/>
   </g>
   <g id="line2d_28">
    <defs>
     <path id="m80a76954dc" d="M 2 0 
L -2 -0 
" style="stroke: #000000"/>
    </defs>
    <g clip-path="url(#p7dc4420fa5)">
     <use xlink:href="#m80a76954dc" x="73.832727" y="295.415254" style="stroke: #000000"/>
     <use xlink:href="#m80a76954dc" x="182.050909" y="292.875455" style="stroke: #000000"/>
     <use xlink:href="#m80a76954dc" x="290.269091" y="291.76575" style="stroke: #000000"/>
     <use xlink:href="#m80a76954dc" x="398.487273" y="291.441627" style="stroke: #000000"/>
    </g>
   </g>
   <g id="line2d_29">
    <g clip-path="url(#p7dc4420fa5)">
     <use xlink:href="#m80a76954dc" x="73.832727" y="295.305854" style="stroke: #000000"/>
     <use xlink:href="#m80a76954dc" x="182.050909" y="292.662583" style="stroke: #000000"/>
     <use xlink:href="#m80a76954dc" x="290.269091" y="291.492095" style="stroke: #000000"/>
     <use xlink:href="#m80a76954dc" x="398.487273" y="291.154654" style="stroke: #000000"/>
    </g>
   </g>
   <g id="line2d_30">
    <path d="M 73.832727 295.360554 
L 182.050909 292.769019 
L 290.269091 291.628922 
L 398.487273 291.29814 
" clip-path="url(#p7dc4420fa5)" style="fill: none; stroke-dasharray: 2.775,1.2; stroke-dashoffset: 0; stroke: #000000; stroke-width: 0.75"/>
   </g>
   <g id="LineCollection_7">
    <path d="M 73.832727 295.488 
L 73.832727 295.372461 
" clip-path="url(#p7dc4420fa5)" style="fill: none; stroke: #ffff00; stroke-width: 1.5"/>
    <path d="M 182.050909 293.008345 
L 182.050909 292.767418 
" clip-path="url(#p7dc4420fa5)" style="fill: none; stroke: #ffff00; stroke-width: 1.5"/>
    <path d="M 290.269091 291.926215 
L 290.269091 291.600209 
" clip-path="url(#p7dc4420fa5)" style="fill: none; stroke: #ffff00; stroke-width: 1.5"/>
    <path d="M 398.487273 291.624588 
L 398.487273 291.265543 
" clip-path="url(#p7dc4420fa5)" style="fill: none; stroke: #ffff00; stroke-width: 1.5"/>
   </g>
   <g id="line2d_31">
    <defs>
     <path id="ma20af307d1" d="M 2 0 
L -2 -0 
" style="stroke: #ffff00"/>
    </defs>
    <g clip-path="url(#p7dc4420fa5)">
     <use xlink:href="#ma20af307d1" x="73.832727" y="295.488" style="fill: #ffff00; stroke: #ffff00"/>
     <use xlink:href="#ma20af307d1" x="182.050909" y="293.008345" style="fill: #ffff00; stroke: #ffff00"/>
     <use xlink:href="#ma20af307d1" x="290.269091" y="291.926215" style="fill: #ffff00; stroke: #ffff00"/>
     <use xlink:href="#ma20af307d1" x="398.487273" y="291.624588" style="fill: #ffff00; stroke: #ffff00"/>
    </g>
   </g>
   <g id="line2d_32">
    <g clip-path="url(#p7dc4420fa5)">
     <use xlink:href="#ma20af307d1" x="73.832727" y="295.372461" style="fill: #ffff00; stroke: #ffff00"/>
     <use xlink:href="#ma20af307d1" x="182.050909" y="292.767418" style="fill: #ffff00; stroke: #ffff00"/>
     <use xlink:href="#ma20af307d1" x="290.269091" y="291.600209" style="fill: #ffff00; stroke: #ffff00"/>
     <use xlink:href="#ma20af307d1" x="398.487273" y="291.265543" style="fill: #ffff00; stroke: #ffff00"/>
    </g>
   </g>
   <g id="line2d_33">
    <path d="M 73.832727 295.430231 
L 182.050909 292.887882 
L 290.269091 291.763212 
L 398.487273 291.445066 
" clip-path="url(#p7dc4420fa5)" style="fill: none; stroke-dasharray: 2.775,1.2; stroke-dashoffset: 0; stroke: #ffff00; stroke-width: 0.75"/>
   </g>
   <g id="line2d_34">
    <defs>
     <path id="m0934f2c278" d="M 0 1.5 
C 0.397805 1.5 0.77937 1.341951 1.06066 1.06066 
C 1.341951 0.77937 1.5 0.397805 1.5 0 
C 1.5 -0.397805 1.341951 -0.77937 1.06066 -1.06066 
C 0.77937 -1.341951 0.397805 -1.5 0 -1.5 
C -0.397805 -1.5 -0.77937 -1.341951 -1.06066 -1.06066 
C -1.341951 -0.77937 -1.5 -0.397805 -1.5 0 
C -1.5 0.397805 -1.341951 0.77937 -1.06066 1.06066 
C -0.77937 1.341951 -0.397805 1.5 0 1.5 
z
" style="stroke: #ff0000"/>
    </defs>
    <g clip-path="url(#p7dc4420fa5)">
     <use xlink:href="#m0934f2c278" x="73.832727" y="295.255413" style="fill: #ff0000; stroke: #ff0000"/>
     <use xlink:href="#m0934f2c278" x="182.050909" y="292.669606" style="fill: #ff0000; stroke: #ff0000"/>
     <use xlink:href="#m0934f2c278" x="290.269091" y="291.570957" style="fill: #ff0000; stroke: #ff0000"/>
     <use xlink:href="#m0934f2c278" x="398.487273" y="291.268773" style="fill: #ff0000; stroke: #ff0000"/>
    </g>
   </g>
   <g id="line2d_35">
    <defs>
     <path id="mcc6f482e84" d="M 0 1.5 
C 0.397805 1.5 0.77937 1.341951 1.06066 1.06066 
C 1.341951 0.77937 1.5 0.397805 1.5 0 
C 1.5 -0.397805 1.341951 -0.77937 1.06066 -1.06066 
C 0.77937 -1.341951 0.397805 -1.5 0 -1.5 
C -0.397805 -1.5 -0.77937 -1.341951 -1.06066 -1.06066 
C -1.341951 -0.77937 -1.5 -0.397805 -1.5 0 
C -1.5 0.397805 -1.341951 0.77937 -1.06066 1.06066 
C -0.77937 1.341951 -0.397805 1.5 0 1.5 
z
" style="stroke: #0000ff"/>
    </defs>
    <g clip-path="url(#p7dc4420fa5)">
     <use xlink:href="#mcc6f482e84" x="73.832727" y="285.868629" style="fill: #0000ff; stroke: #0000ff"/>
     <use xlink:href="#mcc6f482e84" x="182.050909" y="273.025497" style="fill: #0000ff; stroke: #0000ff"/>
     <use xlink:href="#mcc6f482e84" x="290.269091" y="265.705807" style="fill: #0000ff; stroke: #0000ff"/>
     <use xlink:href="#mcc6f482e84" x="398.487273" y="263.464414" style="fill: #0000ff; stroke: #0000ff"/>
    </g>
   </g>
   <g id="line2d_36">
    <defs>
     <path id="m3fbf237a37" d="M 0 1.5 
C 0.397805 1.5 0.77937 1.341951 1.06066 1.06066 
C 1.341951 0.77937 1.5 0.397805 1.5 0 
C 1.5 -0.397805 1.341951 -0.77937 1.06066 -1.06066 
C 0.77937 -1.341951 0.397805 -1.5 0 -1.5 
C -0.397805 -1.5 -0.77937 -1.341951 -1.06066 -1.06066 
C -1.341951 -0.77937 -1.5 -0.397805 -1.5 0 
C -1.5 0.397805 -1.341951 0.77937 -1.06066 1.06066 
C -0.77937 1.341951 -0.397805 1.5 0 1.5 
z
" style="stroke: #008000"/>
    </defs>
    <g clip-path="url(#p7dc4420fa5)">
     <use xlink:href="#m3fbf237a37" x="73.832727" y="214.035945" style="fill: #008000; stroke: #008000"/>
     <use xlink:href="#m3fbf237a37" x="182.050909" y="123.546279" style="fill: #008000; stroke: #008000"/>
     <use xlink:href="#m3fbf237a37" x="290.269091" y="70.742992" style="fill: #008000; stroke: #008000"/>
     <use xlink:href="#m3fbf237a37" x="398.487273" y="54.417949" style="fill: #008000; stroke: #008000"/>
    </g>
   </g>
   <g id="line2d_37">
    <defs>
     <path id="m709d4eb001" d="M 0 1.5 
C 0.397805 1.5 0.77937 1.341951 1.06066 1.06066 
C 1.341951 0.77937 1.5 0.397805 1.5 0 
C 1.5 -0.397805 1.341951 -0.77937 1.06066 -1.06066 
C 0.77937 -1.341951 0.397805 -1.5 0 -1.5 
C -0.397805 -1.5 -0.77937 -1.341951 -1.06066 -1.06066 
C -1.341951 -0.77937 -1.5 -0.397805 -1.5 0 
C -1.5 0.397805 -1.341951 0.77937 -1.06066 1.06066 
C -0.77937 1.341951 -0.397805 1.5 0 1.5 
z
" style="stroke: #ffa500"/>
    </defs>
    <g clip-path="url(#p7dc4420fa5)">
     <use xlink:href="#m709d4eb001" x="73.832727" y="295.281242" style="fill: #ffa500; stroke: #ffa500"/>
     <use xlink:href="#m709d4eb001" x="182.050909" y="292.699178" style="fill: #ffa500; stroke: #ffa500"/>
     <use xlink:href="#m709d4eb001" x="290.269091" y="291.597338" style="fill: #ffa500; stroke: #ffa500"/>
     <use xlink:href="#m709d4eb001" x="398.487273" y="291.29471" style="fill: #ffa500; stroke: #ffa500"/>
    </g>
   </g>
   <g id="line2d_38">
    <defs>
     <path id="mf111f13f96" d="M 0 1.5 
C 0.397805 1.5 0.77937 1.341951 1.06066 1.06066 
C 1.341951 0.77937 1.5 0.397805 1.5 0 
C 1.5 -0.397805 1.341951 -0.77937 1.06066 -1.06066 
C 0.77937 -1.341951 0.397805 -1.5 0 -1.5 
C -0.397805 -1.5 -0.77937 -1.341951 -1.06066 -1.06066 
C -1.341951 -0.77937 -1.5 -0.397805 -1.5 0 
C -1.5 0.397805 -1.341951 0.77937 -1.06066 1.06066 
C -0.77937 1.341951 -0.397805 1.5 0 1.5 
z
" style="stroke: #800080"/>
    </defs>
    <g clip-path="url(#p7dc4420fa5)">
     <use xlink:href="#mf111f13f96" x="73.832727" y="295.344685" style="fill: #800080; stroke: #800080"/>
     <use xlink:href="#mf111f13f96" x="182.050909" y="292.793104" style="fill: #800080; stroke: #800080"/>
     <use xlink:href="#mf111f13f96" x="290.269091" y="291.699561" style="fill: #800080; stroke: #800080"/>
     <use xlink:href="#mf111f13f96" x="398.487273" y="291.398431" style="fill: #800080; stroke: #800080"/>
    </g>
   </g>
   <g id="line2d_39">
    <defs>
     <path id="mdac21e45ae" d="M 0 1.5 
C 0.397805 1.5 0.77937 1.341951 1.06066 1.06066 
C 1.341951 0.77937 1.5 0.397805 1.5 0 
C 1.5 -0.397805 1.341951 -0.77937 1.06066 -1.06066 
C 0.77937 -1.341951 0.397805 -1.5 0 -1.5 
C -0.397805 -1.5 -0.77937 -1.341951 -1.06066 -1.06066 
C -1.341951 -0.77937 -1.5 -0.397805 -1.5 0 
C -1.5 0.397805 -1.341951 0.77937 -1.06066 1.06066 
C -0.77937 1.341951 -0.397805 1.5 0 1.5 
z
" style="stroke: #000000"/>
    </defs>
    <g clip-path="url(#p7dc4420fa5)">
     <use xlink:href="#mdac21e45ae" x="73.832727" y="295.360554" style="stroke: #000000"/>
     <use xlink:href="#mdac21e45ae" x="182.050909" y="292.769019" style="stroke: #000000"/>
     <use xlink:href="#mdac21e45ae" x="290.269091" y="291.628922" style="stroke: #000000"/>
     <use xlink:href="#mdac21e45ae" x="398.487273" y="291.29814" style="stroke: #000000"/>
    </g>
   </g>
   <g id="line2d_40">
    <defs>
     <path id="mec5cde22ca" d="M 0 1.5 
C 0.397805 1.5 0.77937 1.341951 1.06066 1.06066 
C 1.341951 0.77937 1.5 0.397805 1.5 0 
C 1.5 -0.397805 1.341951 -0.77937 1.06066 -1.06066 
C 0.77937 -1.341951 0.397805 -1.5 0 -1.5 
C -0.397805 -1.5 -0.77937 -1.341951 -1.06066 -1.06066 
C -1.341951 -0.77937 -1.5 -0.397805 -1.5 0 
C -1.5 0.397805 -1.341951 0.77937 -1.06066 1.06066 
C -0.77937 1.341951 -0.397805 1.5 0 1.5 
z
" style="stroke: #ffff00"/>
    </defs>
    <g clip-path="url(#p7dc4420fa5)">
     <use xlink:href="#mec5cde22ca" x="73.832727" y="295.430231" style="fill: #ffff00; stroke: #ffff00"/>
     <use xlink:href="#mec5cde22ca" x="182.050909" y="292.887882" style="fill: #ffff00; stroke: #ffff00"/>
     <use xlink:href="#mec5cde22ca" x="290.269091" y="291.763212" style="fill: #ffff00; stroke: #ffff00"/>
     <use xlink:href="#mec5cde22ca" x="398.487273" y="291.445066" style="fill: #ffff00; stroke: #ffff00"/>
    </g>
   </g>
   <g id="patch_3">
    <path d="M 57.6 307.584 
L 57.6 41.472 
" style="fill: none; stroke: #000000; stroke-width: 0.8; stroke-linejoin: miter; stroke-linecap: square"/>
   </g>
   <g id="patch_4">
    <path d="M 57.6 307.584 
L 414.72 307.584 
" style="fill: none; stroke: #000000; stroke-width: 0.8; stroke-linejoin: miter; stroke-linecap: square"/>
   </g>
   <g id="text_15">
    <!--  N = 8 HMC = True -->
    <g transform="translate(179.7375 35.472) scale(0.12 -0.12)">
     <defs>
      <path id="DejaVuSans-20" transform="scale(0.015625)"/>
      <path id="DejaVuSans-4e" d="M 628 4666 
L 1478 4666 
L 3547 763 
L 3547 4666 
L 4159 4666 
L 4159 0 
L 3309 0 
L 1241 3903 
L 1241 0 
L 628 0 
L 628 4666 
z
" transform="scale(0.015625)"/>
      <path id="DejaVuSans-3d" d="M 678 2906 
L 4684 2906 
L 4684 2381 
L 678 2381 
L 678 2906 
z
M 678 1631 
L 4684 1631 
L 4684 1100 
L 678 1100 
L 678 1631 
z
" transform="scale(0.015625)"/>
      <path id="DejaVuSans-38" d="M 2034 2216 
Q 1584 2216 1326 1975 
Q 1069 1734 1069 1313 
Q 1069 891 1326 650 
Q 1584 409 2034 409 
Q 2484 409 2743 651 
Q 3003 894 3003 1313 
Q 3003 1734 2745 1975 
Q 2488 2216 2034 2216 
z
M 1403 2484 
Q 997 2584 770 2862 
Q 544 3141 544 3541 
Q 544 4100 942 4425 
Q 1341 4750 2034 4750 
Q 2731 4750 3128 4425 
Q 3525 4100 3525 3541 
Q 3525 3141 3298 2862 
Q 3072 2584 2669 2484 
Q 3125 2378 3379 2068 
Q 3634 1759 3634 1313 
Q 3634 634 3220 271 
Q 2806 -91 2034 -91 
Q 1263 -91 848 271 
Q 434 634 434 1313 
Q 434 1759 690 2068 
Q 947 2378 1403 2484 
z
M 1172 3481 
Q 1172 3119 1398 2916 
Q 1625 2713 2034 2713 
Q 2441 2713 2670 2916 
Q 2900 3119 2900 3481 
Q 2900 3844 2670 4047 
Q 2441 4250 2034 4250 
Q 1625 4250 1398 4047 
Q 1172 3844 1172 3481 
z
" transform="scale(0.015625)"/>
      <path id="DejaVuSans-48" d="M 628 4666 
L 1259 4666 
L 1259 2753 
L 3553 2753 
L 3553 4666 
L 4184 4666 
L 4184 0 
L 3553 0 
L 3553 2222 
L 1259 2222 
L 1259 0 
L 628 0 
L 628 4666 
z
" transform="scale(0.015625)"/>
      <path id="DejaVuSans-4d" d="M 628 4666 
L 1569 4666 
L 2759 1491 
L 3956 4666 
L 4897 4666 
L 4897 0 
L 4281 0 
L 4281 4097 
L 3078 897 
L 2444 897 
L 1241 4097 
L 1241 0 
L 628 0 
L 628 4666 
z
" transform="scale(0.015625)"/>
      <path id="DejaVuSans-43" d="M 4122 4306 
L 4122 3641 
Q 3803 3938 3442 4084 
Q 3081 4231 2675 4231 
Q 1875 4231 1450 3742 
Q 1025 3253 1025 2328 
Q 1025 1406 1450 917 
Q 1875 428 2675 428 
Q 3081 428 3442 575 
Q 3803 722 4122 1019 
L 4122 359 
Q 3791 134 3420 21 
Q 3050 -91 2638 -91 
Q 1578 -91 968 557 
Q 359 1206 359 2328 
Q 359 3453 968 4101 
Q 1578 4750 2638 4750 
Q 3056 4750 3426 4639 
Q 3797 4528 4122 4306 
z
" transform="scale(0.015625)"/>
      <path id="DejaVuSans-54" d="M -19 4666 
L 3928 4666 
L 3928 4134 
L 2272 4134 
L 2272 0 
L 1638 0 
L 1638 4134 
L -19 4134 
L -19 4666 
z
" transform="scale(0.015625)"/>
      <path id="DejaVuSans-72" d="M 2631 2963 
Q 2534 3019 2420 3045 
Q 2306 3072 2169 3072 
Q 1681 3072 1420 2755 
Q 1159 2438 1159 1844 
L 1159 0 
L 581 0 
L 581 3500 
L 1159 3500 
L 1159 2956 
Q 1341 3275 1631 3429 
Q 1922 3584 2338 3584 
Q 2397 3584 2469 3576 
Q 2541 3569 2628 3553 
L 2631 2963 
z
" transform="scale(0.015625)"/>
      <path id="DejaVuSans-75" d="M 544 1381 
L 544 3500 
L 1119 3500 
L 1119 1403 
Q 1119 906 1312 657 
Q 1506 409 1894 409 
Q 2359 409 2629 706 
Q 2900 1003 2900 1516 
L 2900 3500 
L 3475 3500 
L 3475 0 
L 2900 0 
L 2900 538 
Q 2691 219 2414 64 
Q 2138 -91 1772 -91 
Q 1169 -91 856 284 
Q 544 659 544 1381 
z
M 1991 3584 
L 1991 3584 
z
" transform="scale(0.015625)"/>
      <path id="DejaVuSans-65" d="M 3597 1894 
L 3597 1613 
L 953 1613 
Q 991 1019 1311 708 
Q 1631 397 2203 397 
Q 2534 397 2845 478 
Q 3156 559 3463 722 
L 3463 178 
Q 3153 47 2828 -22 
Q 2503 -91 2169 -91 
Q 1331 -91 842 396 
Q 353 884 353 1716 
Q 353 2575 817 3079 
Q 1281 3584 2069 3584 
Q 2775 3584 3186 3129 
Q 3597 2675 3597 1894 
z
M 3022 2063 
Q 3016 2534 2758 2815 
Q 2500 3097 2075 3097 
Q 1594 3097 1305 2825 
Q 1016 2553 972 2059 
L 3022 2063 
z
" transform="scale(0.015625)"/>
     </defs>
     <use xlink:href="#DejaVuSans-20"/>
     <use xlink:href="#DejaVuSans-4e" x="31.787109"/>
     <use xlink:href="#DejaVuSans-20" x="106.591797"/>
     <use xlink:href="#DejaVuSans-3d" x="138.378906"/>
     <use xlink:href="#DejaVuSans-20" x="222.167969"/>
     <use xlink:href="#DejaVuSans-38" x="253.955078"/>
     <use xlink:href="#DejaVuSans-20" x="317.578125"/>
     <use xlink:href="#DejaVuSans-48" x="349.365234"/>
     <use xlink:href="#DejaVuSans-4d" x="424.560547"/>
     <use xlink:href="#DejaVuSans-43" x="510.839844"/>
     <use xlink:href="#DejaVuSans-20" x="580.664062"/>
     <use xlink:href="#DejaVuSans-3d" x="612.451172"/>
     <use xlink:href="#DejaVuSans-20" x="696.240234"/>
     <use xlink:href="#DejaVuSans-54" x="728.027344"/>
     <use xlink:href="#DejaVuSans-72" x="774.361328"/>
     <use xlink:href="#DejaVuSans-75" x="815.474609"/>
     <use xlink:href="#DejaVuSans-65" x="878.853516"/>
    </g>
   </g>
   <g id="legend_1">
    <g id="patch_5">
     <path d="M 64.6 152.218875 
L 122.473437 152.218875 
Q 124.473437 152.218875 124.473437 150.218875 
L 124.473437 48.472 
Q 124.473437 46.472 122.473437 46.472 
L 64.6 46.472 
Q 62.6 46.472 62.6 48.472 
L 62.6 150.218875 
Q 62.6 152.218875 64.6 152.218875 
z
" style="fill: #ffffff; opacity: 0.8; stroke: #cccccc; stroke-linejoin: miter"/>
    </g>
    <g id="LineCollection_8">
     <path d="M 76.6 59.570438 
L 76.6 49.570438 
" style="fill: none; stroke: #ff0000; stroke-width: 1.5"/>
    </g>
    <g id="line2d_41">
     <g>
      <use xlink:href="#me3149da091" x="76.6" y="59.570438" style="fill: #ff0000; stroke: #ff0000"/>
     </g>
    </g>
    <g id="line2d_42">
     <g>
      <use xlink:href="#me3149da091" x="76.6" y="49.570438" style="fill: #ff0000; stroke: #ff0000"/>
     </g>
    </g>
    <g id="line2d_43"/>
    <g id="line2d_44">
     <g>
      <use xlink:href="#m0934f2c278" x="76.6" y="54.570438" style="fill: #ff0000; stroke: #ff0000"/>
     </g>
    </g>
    <g id="text_16">
     <!-- -1 -->
     <g transform="translate(94.6 58.070438) scale(0.1 -0.1)">
      <defs>
       <path id="DejaVuSans-2d" d="M 313 2009 
L 1997 2009 
L 1997 1497 
L 313 1497 
L 313 2009 
z
" transform="scale(0.015625)"/>
      </defs>
      <use xlink:href="#DejaVuSans-2d"/>
      <use xlink:href="#DejaVuSans-31" x="36.083984"/>
     </g>
    </g>
    <g id="LineCollection_9">
     <path d="M 76.6 74.248563 
L 76.6 64.248563 
" style="fill: none; stroke: #0000ff; stroke-width: 1.5"/>
    </g>
    <g id="line2d_45">
     <g>
      <use xlink:href="#m91e31c4048" x="76.6" y="74.248563" style="fill: #0000ff; stroke: #0000ff"/>
     </g>
    </g>
    <g id="line2d_46">
     <g>
      <use xlink:href="#m91e31c4048" x="76.6" y="64.248563" style="fill: #0000ff; stroke: #0000ff"/>
     </g>
    </g>
    <g id="line2d_47"/>
    <g id="line2d_48">
     <g>
      <use xlink:href="#mcc6f482e84" x="76.6" y="69.248563" style="fill: #0000ff; stroke: #0000ff"/>
     </g>
    </g>
    <g id="text_17">
     <!-- -0.1 -->
     <g transform="translate(94.6 72.748563) scale(0.1 -0.1)">
      <use xlink:href="#DejaVuSans-2d"/>
      <use xlink:href="#DejaVuSans-30" x="36.083984"/>
      <use xlink:href="#DejaVuSans-2e" x="99.707031"/>
      <use xlink:href="#DejaVuSans-31" x="131.494141"/>
     </g>
    </g>
    <g id="LineCollection_10">
     <path d="M 76.6 88.926688 
L 76.6 78.926688 
" style="fill: none; stroke: #008000; stroke-width: 1.5"/>
    </g>
    <g id="line2d_49">
     <g>
      <use xlink:href="#m7d498c51ed" x="76.6" y="88.926688" style="fill: #008000; stroke: #008000"/>
     </g>
    </g>
    <g id="line2d_50">
     <g>
      <use xlink:href="#m7d498c51ed" x="76.6" y="78.926688" style="fill: #008000; stroke: #008000"/>
     </g>
    </g>
    <g id="line2d_51"/>
    <g id="line2d_52">
     <g>
      <use xlink:href="#m3fbf237a37" x="76.6" y="83.926688" style="fill: #008000; stroke: #008000"/>
     </g>
    </g>
    <g id="text_18">
     <!-- -0.01 -->
     <g transform="translate(94.6 87.426688) scale(0.1 -0.1)">
      <use xlink:href="#DejaVuSans-2d"/>
      <use xlink:href="#DejaVuSans-30" x="36.083984"/>
      <use xlink:href="#DejaVuSans-2e" x="99.707031"/>
      <use xlink:href="#DejaVuSans-30" x="131.494141"/>
      <use xlink:href="#DejaVuSans-31" x="195.117188"/>
     </g>
    </g>
    <g id="LineCollection_11">
     <path d="M 76.6 103.604813 
L 76.6 93.604813 
" style="fill: none; stroke: #ffa500; stroke-width: 1.5"/>
    </g>
    <g id="line2d_53">
     <g>
      <use xlink:href="#mf5551f35b3" x="76.6" y="103.604813" style="fill: #ffa500; stroke: #ffa500"/>
     </g>
    </g>
    <g id="line2d_54">
     <g>
      <use xlink:href="#mf5551f35b3" x="76.6" y="93.604813" style="fill: #ffa500; stroke: #ffa500"/>
     </g>
    </g>
    <g id="line2d_55"/>
    <g id="line2d_56">
     <g>
      <use xlink:href="#m709d4eb001" x="76.6" y="98.604813" style="fill: #ffa500; stroke: #ffa500"/>
     </g>
    </g>
    <g id="text_19">
     <!-- -0.9 -->
     <g transform="translate(94.6 102.104813) scale(0.1 -0.1)">
      <defs>
       <path id="DejaVuSans-39" d="M 703 97 
L 703 672 
Q 941 559 1184 500 
Q 1428 441 1663 441 
Q 2288 441 2617 861 
Q 2947 1281 2994 2138 
Q 2813 1869 2534 1725 
Q 2256 1581 1919 1581 
Q 1219 1581 811 2004 
Q 403 2428 403 3163 
Q 403 3881 828 4315 
Q 1253 4750 1959 4750 
Q 2769 4750 3195 4129 
Q 3622 3509 3622 2328 
Q 3622 1225 3098 567 
Q 2575 -91 1691 -91 
Q 1453 -91 1209 -44 
Q 966 3 703 97 
z
M 1959 2075 
Q 2384 2075 2632 2365 
Q 2881 2656 2881 3163 
Q 2881 3666 2632 3958 
Q 2384 4250 1959 4250 
Q 1534 4250 1286 3958 
Q 1038 3666 1038 3163 
Q 1038 2656 1286 2365 
Q 1534 2075 1959 2075 
z
" transform="scale(0.015625)"/>
      </defs>
      <use xlink:href="#DejaVuSans-2d"/>
      <use xlink:href="#DejaVuSans-30" x="36.083984"/>
      <use xlink:href="#DejaVuSans-2e" x="99.707031"/>
      <use xlink:href="#DejaVuSans-39" x="131.494141"/>
     </g>
    </g>
    <g id="LineCollection_12">
     <path d="M 76.6 118.282938 
L 76.6 108.282938 
" style="fill: none; stroke: #800080; stroke-width: 1.5"/>
    </g>
    <g id="line2d_57">
     <g>
      <use xlink:href="#m3151115408" x="76.6" y="118.282938" style="fill: #800080; stroke: #800080"/>
     </g>
    </g>
    <g id="line2d_58">
     <g>
      <use xlink:href="#m3151115408" x="76.6" y="108.282938" style="fill: #800080; stroke: #800080"/>
     </g>
    </g>
    <g id="line2d_59"/>
    <g id="line2d_60">
     <g>
      <use xlink:href="#mf111f13f96" x="76.6" y="113.282938" style="fill: #800080; stroke: #800080"/>
     </g>
    </g>
    <g id="text_20">
     <!-- -0.8 -->
     <g transform="translate(94.6 116.782938) scale(0.1 -0.1)">
      <use xlink:href="#DejaVuSans-2d"/>
      <use xlink:href="#DejaVuSans-30" x="36.083984"/>
      <use xlink:href="#DejaVuSans-2e" x="99.707031"/>
      <use xlink:href="#DejaVuSans-38" x="131.494141"/>
     </g>
    </g>
    <g id="LineCollection_13">
     <path d="M 76.6 132.961063 
L 76.6 122.961063 
" style="fill: none; stroke: #000000; stroke-width: 1.5"/>
    </g>
    <g id="line2d_61">
     <g>
      <use xlink:href="#m80a76954dc" x="76.6" y="132.961063" style="stroke: #000000"/>
     </g>
    </g>
    <g id="line2d_62">
     <g>
      <use xlink:href="#m80a76954dc" x="76.6" y="122.961063" style="stroke: #000000"/>
     </g>
    </g>
    <g id="line2d_63"/>
    <g id="line2d_64">
     <g>
      <use xlink:href="#mdac21e45ae" x="76.6" y="127.961063" style="stroke: #000000"/>
     </g>
    </g>
    <g id="text_21">
     <!-- -0.7 -->
     <g transform="translate(94.6 131.461063) scale(0.1 -0.1)">
      <defs>
       <path id="DejaVuSans-37" d="M 525 4666 
L 3525 4666 
L 3525 4397 
L 1831 0 
L 1172 0 
L 2766 4134 
L 525 4134 
L 525 4666 
z
" transform="scale(0.015625)"/>
      </defs>
      <use xlink:href="#DejaVuSans-2d"/>
      <use xlink:href="#DejaVuSans-30" x="36.083984"/>
      <use xlink:href="#DejaVuSans-2e" x="99.707031"/>
      <use xlink:href="#DejaVuSans-37" x="131.494141"/>
     </g>
    </g>
    <g id="LineCollection_14">
     <path d="M 76.6 147.639188 
L 76.6 137.639188 
" style="fill: none; stroke: #ffff00; stroke-width: 1.5"/>
    </g>
    <g id="line2d_65">
     <g>
      <use xlink:href="#ma20af307d1" x="76.6" y="147.639188" style="fill: #ffff00; stroke: #ffff00"/>
     </g>
    </g>
    <g id="line2d_66">
     <g>
      <use xlink:href="#ma20af307d1" x="76.6" y="137.639188" style="fill: #ffff00; stroke: #ffff00"/>
     </g>
    </g>
    <g id="line2d_67"/>
    <g id="line2d_68">
     <g>
      <use xlink:href="#mec5cde22ca" x="76.6" y="142.639188" style="fill: #ffff00; stroke: #ffff00"/>
     </g>
    </g>
    <g id="text_22">
     <!-- -0.6 -->
     <g transform="translate(94.6 146.139188) scale(0.1 -0.1)">
      <defs>
       <path id="DejaVuSans-36" d="M 2113 2584 
Q 1688 2584 1439 2293 
Q 1191 2003 1191 1497 
Q 1191 994 1439 701 
Q 1688 409 2113 409 
Q 2538 409 2786 701 
Q 3034 994 3034 1497 
Q 3034 2003 2786 2293 
Q 2538 2584 2113 2584 
z
M 3366 4563 
L 3366 3988 
Q 3128 4100 2886 4159 
Q 2644 4219 2406 4219 
Q 1781 4219 1451 3797 
Q 1122 3375 1075 2522 
Q 1259 2794 1537 2939 
Q 1816 3084 2150 3084 
Q 2853 3084 3261 2657 
Q 3669 2231 3669 1497 
Q 3669 778 3244 343 
Q 2819 -91 2113 -91 
Q 1303 -91 875 529 
Q 447 1150 447 2328 
Q 447 3434 972 4092 
Q 1497 4750 2381 4750 
Q 2619 4750 2861 4703 
Q 3103 4656 3366 4563 
z
" transform="scale(0.015625)"/>
      </defs>
      <use xlink:href="#DejaVuSans-2d"/>
      <use xlink:href="#DejaVuSans-30" x="36.083984"/>
      <use xlink:href="#DejaVuSans-2e" x="99.707031"/>
      <use xlink:href="#DejaVuSans-36" x="131.494141"/>
     </g>
    </g>
   </g>
  </g>
 </g>
 <defs>
  <clipPath id="p7dc4420fa5">
   <rect x="57.6" y="41.472" width="357.12" height="266.112"/>
  </clipPath>
 </defs>
</svg>
